<?xml version="1.0" encoding="UTF-8" standalone="no"?>
<!DOCTYPE svg PUBLIC "-//W3C//DTD SVG 1.1//EN" "http://www.w3.org/Graphics/SVG/1.1/DTD/svg11.dtd">
<svg width="100%" height="100%" viewBox="0 0 212 210" version="1.1" xmlns="http://www.w3.org/2000/svg" xmlns:xlink="http://www.w3.org/1999/xlink" xml:space="preserve" style="fill-rule:evenodd;clip-rule:evenodd;stroke-linejoin:round;stroke-miterlimit:1.41421;">
    <g id="Artboard1" transform="matrix(1.04432,0,0,1.022,-2.28894,2.24)">
        <rect x="2.192" y="-2.192" width="202.74" height="205.479" style="fill:none;"/>
        <g transform="matrix(0.220678,0,0,0.225497,-6.79383,-12.2006)">
            <path d="M247.386,407.229C258.227,376.706 279.798,357.316 293.863,357.316C294.673,357.316 295.459,357.38 296.217,357.511C305.52,359.114 311.076,373.151 311.076,395.059C311.076,446.187 283.645,481.093 258.652,502.283C232.69,460.858 242.198,421.837 247.386,407.229M475.713,439.72C483.503,417.785 500.629,404.063 512.49,404.063C513.304,404.063 514.093,404.127 514.851,404.258C523.939,405.824 529.152,417.876 529.152,437.325C529.152,448.59 515.989,482.961 491.882,514.965C472.758,491.182 466.735,464.999 475.713,439.72M714.426,441.234C725.2,410.899 749.331,390.522 765.542,390.522C766.563,390.522 767.552,390.603 768.504,390.766C778.987,392.573 784.999,406.411 784.999,428.734C784.999,457.126 770.99,502.385 740.631,537.035C700.385,499.581 708.094,459.064 714.426,441.234M933.874,509.752C933.945,506.506 933.994,503.257 933.994,500C933.994,441.413 922.518,384.575 899.883,331.062C878.024,279.379 846.731,232.966 806.875,193.11C767.021,153.255 720.606,121.962 668.924,100.102C615.411,77.468 558.572,65.992 499.985,65.992C441.399,65.992 384.56,77.468 331.046,100.102C279.365,121.962 232.95,153.255 193.095,193.11C153.239,232.966 121.947,279.379 100.087,331.062C79.368,380.047 67.999,431.861 66.224,485.21C64.92,522.247 82.931,541.159 98.271,550.501C132.15,571.137 188.422,566.179 238.292,538.161C244.044,534.93 249.598,531.449 254.931,527.743C270.018,545.932 290.312,562.231 315.642,576.463C361.243,602.082 407.475,602.68 449.337,578.183C465.546,568.698 480.059,556.074 492.626,542.177C503.949,552.666 517.666,562.451 533.718,571.47C617.65,618.625 677.702,603.688 713.301,582.86C724.131,576.522 733.639,569.163 741.948,561.364C748.584,566.31 755.854,571.005 763.747,575.441C784.376,587.03 812.911,585.298 840.507,583.621C864.873,582.141 890.065,580.613 897.918,590.646C902.497,596.498 902.254,607.66 897.193,623.825C844.342,792.96 686.305,916.108 499.985,916.108C305.234,916.108 141.309,781.62 96.189,600.64L78.478,603.816C83.924,625.978 91.114,647.724 100.087,668.939C121.947,720.621 153.239,767.036 193.095,806.89C232.95,846.746 279.365,878.039 331.046,899.898C384.56,922.533 441.399,934.009 499.985,934.009C558.572,934.009 615.411,922.533 668.924,899.898C720.606,878.039 767.021,846.746 806.875,806.89C846.731,767.036 878.024,720.621 899.883,668.939C905.402,655.892 910.095,642.594 914.276,629.172C921.298,606.74 920.559,590.531 912.015,579.614C898.367,562.173 869.734,563.914 839.422,565.753C814.411,567.27 788.549,568.842 772.515,559.834C765.852,556.09 759.854,552.252 754.459,548.346C766.014,535.049 774.515,521.424 780.504,510.049C794.738,483.016 802.9,453.378 802.9,428.734C802.9,385.051 783.255,375.143 771.543,373.126C745.029,368.561 711.139,397.001 697.557,435.243C689.048,459.206 689.22,483.897 698.057,506.647C704.18,522.41 714.236,536.845 728.098,549.822C720.883,556.383 712.944,562.328 704.26,567.41C659.007,593.894 603.065,589.899 542.487,555.863C527.456,547.42 514.658,538.14 504.247,528.295C531.608,493.047 547.053,453.856 547.053,437.325C547.053,396.093 526.659,388.128 517.891,386.617C495.524,382.761 469.594,403.458 458.844,433.729C453.383,449.106 449.56,473.355 462.365,501.55C466.744,511.196 472.696,520.438 480.19,529.249C468.706,542.132 455.35,553.924 440.295,562.733C403.717,584.141 364.727,583.507 324.41,560.856C299.547,546.887 281.775,531.862 269.229,516.818C281.951,506.146 293.013,494.089 301.963,481.053C319.889,454.951 328.976,426.019 328.976,395.059C328.976,351.496 310.355,341.782 299.256,339.87C274.442,335.599 244.258,362.552 230.518,401.238C223.355,421.404 217.743,452.953 231.68,488.724C234.99,497.22 239.199,505.413 244.298,513.295C238.734,517.153 233.666,520.227 229.525,522.555C203.014,537.447 174.146,545.224 149.261,545.222C133.11,545.222 118.635,541.945 107.582,535.213C91.207,525.24 83.311,508.628 84.113,485.839C91.616,262.936 275.289,83.893 499.985,83.893C729.428,83.893 916.093,270.558 916.093,500C916.093,502.555 916.061,505.103 916.015,507.647L933.874,509.752Z" style="fill:rgb(59,175,218);fill-rule:nonzero;"/>
        </g>
    </g>
</svg>
